<?xml version="1.0" standalone="no"?><!DOCTYPE svg PUBLIC "-//W3C//DTD SVG 1.1//EN" "http://www.w3.org/Graphics/SVG/1.1/DTD/svg11.dtd"><svg t="1742366031949" class="icon" viewBox="0 0 1024 1024" version="1.1" xmlns="http://www.w3.org/2000/svg" p-id="6887" xmlns:xlink="http://www.w3.org/1999/xlink" width="200" height="200"><path d="M655.712 539v38.273h-108.44v344.454h108.44V960H509V539h146.712zM930 539v421H783.288v-38.273h108.44V577.273h-108.44V539H930zM477 65c209.5 0 383 78.804 383 191.355 0 1.408-0.027 2.812-0.081 4.21l0.019 155.252H860c0 1.191-0.02 2.378-0.058 3.56l0.012 72.369-131.382 0.002c39.323-20.508 63.781-45.115 67.185-69.97l0.348-5.07-0.006-51.855c-67.88 50.646-183.142 81.857-312.825 82.834l-6.274 0.023c-132.28 0-250.208-31.417-319.17-82.91l0.003 51.018c0 62.06 134.19 124.5 306.398 127.46l0.002 63.797c-127.076-1.952-239.665-32.982-306.402-82.811v51.016c0.002 62.061 134.193 124.5 306.4 127.46l0.002 63.797c-127.076-1.951-239.665-32.981-306.402-82.81l0.002 51.016c0 62.06 134.19 124.5 306.398 127.46l0.001 63.797c-197.957-3.04-360.76-76.645-369.833-181.957l-0.399-9.3V256.355l0.052-3.366C97.474 142.236 269.596 65 477 65z m241.692 581c28.3 0 48.95 7.286 62.717 22.242C792.88 681.281 799 699.305 799 722.314V849.63h-28.681v-33.363c-7.649 10.738-17.974 19.558-30.211 26.46C725.576 850.782 709.132 855 690.776 855c-19.886 0-35.565-4.985-47.42-14.956C631.119 829.69 625 816.268 625 800.161c0-22.625 8.796-39.499 27.152-51.003 16.061-10.738 39.006-16.49 68.835-16.874l47.42-0.767v-10.354c0-33.363-17.21-49.853-51.627-49.853-14.532 0-26.387 2.684-35.565 8.82-10.325 6.136-16.826 15.723-19.885 28.378l-30.211-2.3c4.206-20.709 14.532-36.432 30.593-46.402 14.532-9.204 33.27-13.806 56.98-13.806z m42.935 110.04l-45.507 0.767c-44.36 0.767-66.54 15.34-66.54 44.101 0 9.204 3.44 16.49 11.09 22.626 7.648 5.752 17.59 8.82 29.828 8.82 18.738 0 35.182-6.136 49.714-18.407 14.15-11.888 21.415-25.694 21.415-41.033V756.04zM477 128.785c-178.297 0-319.167 63.983-319.167 127.57 0 63.587 140.87 127.57 319.167 127.57 175.814 0 315.236-62.214 319.085-124.913l-0.01-2.65 0.091-0.001c0-62.957-138.066-126.296-313.828-127.557l-5.338-0.019z" p-id="6888"></path></svg>