<?xml version="1.0" standalone="no"?><!DOCTYPE svg PUBLIC "-//W3C//DTD SVG 1.1//EN" "http://www.w3.org/Graphics/SVG/1.1/DTD/svg11.dtd"><svg t="1742365954961" class="icon" viewBox="0 0 1024 1024" version="1.1" xmlns="http://www.w3.org/2000/svg" p-id="5874" xmlns:xlink="http://www.w3.org/1999/xlink" width="200" height="200"><path d="M724.944738 929.476923H118.153846a47.261538 47.261538 0 0 1-47.261538-47.261538V724.676923a47.261538 47.261538 0 0 1 47.261538-47.261538h444.652308c3.513108 22.7328 8.412554 43.748431 14.698338 63.015384H133.907692v126.030769h582.892308v34.154339c0 10.586585 2.993231 20.48 8.144738 28.861046zM556.992985 598.646154c-0.267815 7.246769-0.220554 14.414769 0.12603 21.504 0.740431 14.383262 1.906215 28.230892 3.528862 41.511384H118.153846a47.261538 47.261538 0 0 1-47.261538-47.261538V456.861538a47.261538 47.261538 0 0 1 47.261538-47.261538h504.516923a574.653046 574.653046 0 0 0-33.461169 63.015385H133.907692v126.030769h423.085293z m132.962461-283.569231a951.595323 951.595323 0 0 0-46.977969 63.015385H118.153846a47.261538 47.261538 0 0 1-47.261538-47.261539V173.292308a47.261538 47.261538 0 0 1 47.261538-47.261539h635.352616a47.261538 47.261538 0 0 1 47.261538 47.261539v104.022646A1341.219446 1341.219446 0 0 0 759.240862 236.307692c-7.3728 7.766646-14.525046 15.486031-21.488247 23.158154V189.046154H133.907692v126.030769h556.047754zM357.9904 834.953846a31.507692 31.507692 0 1 1 0-63.015384h101.643815a31.507692 31.507692 0 1 1 0 63.015384h-101.643815zM354.461538 564.4288a31.507692 31.507692 0 1 1 0-63.015385h101.643816a31.507692 31.507692 0 1 1 0 63.015385H354.461538zM357.9904 283.569231a31.507692 31.507692 0 1 1 0-63.015385h101.643815a31.507692 31.507692 0 1 1 0 63.015385h-101.643815z" fill="#666666" p-id="5875"></path><path d="M653.973662 609.390277c3.544615 70.703262 22.464985 118.563446 55.138461 145.565538a31.507692 31.507692 0 1 1-40.156554 48.569108c-48.128-39.794215-73.570462-104.132923-77.918523-190.968123-4.489846-89.166769 48.175262-189.707815 155.301416-303.340308l21.787569-23.110892 22.9376 21.976615c109.7728 105.188431 162.926277 204.658215 156.120615 299.197047-6.585108 91.608615-34.359138 157.963815-85.165292 196.954584a31.507692 31.507692 0 1 1-38.376369-49.986954c34.422154-26.4192 55.280246-76.217108 60.699569-151.488984 4.773415-66.449723-32.3584-142.1312-113.994831-226.430031-81.447385 91.923692-119.540185 170.078523-116.373661 233.0624z" fill="#666666" p-id="5876"></path><path d="M732.553846 551.7312a31.507692 31.507692 0 0 1 63.015385 0V900.962462a31.507692 31.507692 0 1 1-63.015385 0V551.7312z" fill="#666666" p-id="5877"></path></svg>