<?xml version="1.0" standalone="no"?><!DOCTYPE svg PUBLIC "-//W3C//DTD SVG 1.1//EN" "http://www.w3.org/Graphics/SVG/1.1/DTD/svg11.dtd"><svg t="1742366059526" class="icon" viewBox="0 0 1024 1024" version="1.1" xmlns="http://www.w3.org/2000/svg" p-id="7940" xmlns:xlink="http://www.w3.org/1999/xlink" width="200" height="200"><path d="M563.2 29.5424l340.992 196.9152a102.4 102.4 0 0 1 51.2 88.6784v393.728a102.4 102.4 0 0 1-51.2 88.6784L563.2 994.4576a102.4 102.4 0 0 1-102.4 0l-340.992-196.9152a102.4 102.4 0 0 1-51.2-88.6784v-393.728a102.4 102.4 0 0 1 51.2-88.6784L460.8 29.5424a102.4 102.4 0 0 1 102.4 0zM501.5552 89.344L496.64 91.648 155.648 288.512a30.72 30.72 0 0 0-15.0016 21.9648l-0.3584 4.608v393.7792a30.72 30.72 0 0 0 11.52 24.0128l3.84 2.56L496.64 932.352a30.72 30.72 0 0 0 25.8048 2.304l4.9152-2.304 340.992-196.864a30.72 30.72 0 0 0 15.0016-21.9648l0.3584-4.608V315.0848a30.72 30.72 0 0 0-11.52-24.0128l-3.84-2.56L527.36 91.648a30.72 30.72 0 0 0-25.8048-2.304zM512 153.6c52.8896 0 95.7952 43.008 95.7952 96.1536 0 27.2384-11.0592 51.6608-29.2864 69.2224l57.856 100.864 40.8064-23.7056c-0.7168-3.584-1.0752-7.168-1.0752-10.752a72.704 72.704 0 0 1 72.5504-72.8576 72.704 72.704 0 0 1 72.5504 72.8576 72.704 72.704 0 0 1-72.5504 72.8064c-19.6608 0-37.1712-7.8848-50.432-20.48l-38.6048 22.272 62.976 109.056A96.256 96.256 0 0 1 844.8 662.016a96 96 0 0 1-95.8464 96.1536 95.8976 95.8976 0 0 1-92.928-72.8576h-120.832v43.0592c28.5696 10.0352 49.3056 36.9664 49.3056 69.2736A72.704 72.704 0 0 1 512 870.4a72.704 72.704 0 0 1-72.5504-72.8064c0-32.3072 20.736-59.5968 49.3056-69.2736v-43.008h-120.832a96 96 0 0 1-92.928 72.8064A96 96 0 0 1 179.2 661.9648c0-53.0944 42.9056-96.1536 95.7952-96.1536 9.3184 0 18.2272 1.0752 26.4704 3.584l61.44-106.9056-39.2704-22.9376c-12.544 11.4688-29.696 18.6368-48.2816 18.6368a72.704 72.704 0 0 1-72.5504-72.8064 72.704 72.704 0 0 1 72.5504-72.8576 72.704 72.704 0 0 1 72.5504 72.8576c0 4.608-0.7168 9.3184-1.4336 13.6192l39.68 22.9376 59.392-102.912a95.488 95.488 0 0 1-29.3376-69.2736C416.2048 196.608 459.1104 153.6 512 153.6z m-235.2128 458.8544h-1.792a49.5104 49.5104 0 1 0 43.9808 26.1632c-0.7168-1.024-1.0752-1.792-1.792-2.8672a49.7664 49.7664 0 0 0-40.3968-23.296z m472.576 0H747.52a48.896 48.896 0 0 0-40.3968 23.296 7.8336 7.8336 0 0 0-1.792 2.8672 49.9712 49.9712 0 0 0 0 46.6432c8.192 15.4624 24.6784 26.2144 43.6224 26.2144 27.136 0 49.3056-22.272 49.664-49.5104a49.5104 49.5104 0 0 0-49.3056-49.5104zM402.944 485.7856L341.504 592.7424c12.8512 12.1856 22.1696 27.9552 26.4192 45.8752v-0.3584h120.832v-102.912l-85.76-49.5616z m216.576-2.1504l-84.3264 48.7936v106.1888h120.832c4.2496-17.92 13.568-33.6896 26.4192-45.8752l-62.8736-109.056z m-81.1008-140.9536a107.008 107.008 0 0 1-26.4704 3.584c-9.3184 0-18.2272-1.0752-26.4704-3.584L426.5472 445.952l82.944 48.0768 86.8864-50.5856zM512 200.6016a49.5104 49.5104 0 0 0-49.3056 49.5104c0 9.3184 2.4576 18.6368 6.7584 26.1632a49.7664 49.7664 0 0 0 40.448 23.3472h3.5328a49.7664 49.7664 0 0 0 47.872-49.5104 49.5104 49.5104 0 0 0-49.3056-49.5104z" p-id="7941"></path></svg>